<svg width="323" height="580" viewBox="0 0 323 580" fill="none" xmlns="http://www.w3.org/2000/svg">
<path d="M233.987 500.465L85.5025 415.024L80.7719 411.355L76.524 407.301L72.7588 402.86L69.5728 397.936L67.0627 392.626L65.2284 386.93L64.0698 380.848L63.7802 375.055V204.076L64.0698 199.152L65.2284 193.07L66.4834 188.726L68.897 183.319L71.8899 178.299L76.524 172.699L80.7719 168.645L86.1784 164.59L233.987 79.4382L241.614 75.8661L323 29.0424L286.12 7.70619L281.1 5.09956L275.404 2.97559L269.708 1.43085L263.722 0.658516L257.447 0.368896L249.627 1.04471L241.324 2.87901L233.118 5.77532L226.07 9.25093L29.121 122.69L23.425 126.841L17.5358 132.055L12.419 137.751L8.94341 142.578L5.08167 149.239L2.18536 156.673L0.157904 164.397L-0.807533 173.279L-0.904053 403.246L-0.517854 410.969L0.930301 418.982L3.34389 426.706L6.72292 433.754L10.9708 440.318L15.8946 446.208L21.6872 451.711L28.059 456.634L226.939 571.232L234.759 574.9L242.965 577.604L251.075 579.148L258.509 579.631L263.433 579.438L269.322 578.569L275.018 577.121L280.714 574.997L286.024 572.39L323 550.958L241.807 504.23L233.987 500.465Z" fill="white"/>
<path fill-rule="evenodd" clip-rule="evenodd" d="M258.316 507.223C250.206 507.223 241.807 505.003 233.987 500.465L86.1784 415.41C72.7588 406.432 63.7803 393.012 63.7803 375.055V204.945C63.7803 186.988 72.7588 173.568 86.1784 164.59L233.987 79.5347C249.627 70.5561 267.584 70.5561 281.004 79.5347L322.228 103.284L230.222 156.19C229.739 156.48 229.256 156.866 228.773 157.156L143.332 206.393C134.354 212.379 128.368 221.357 128.368 233.232V346.671C128.368 358.642 134.354 367.524 143.332 373.51L228.773 422.747C229.256 423.134 229.739 423.423 230.222 423.713L322.228 476.619L281.004 500.369C274.245 505.003 266.425 507.223 258.316 507.223Z" fill="white" fill-opacity="0.5044"/>
<path fill-rule="evenodd" clip-rule="evenodd" d="M258.122 434.816C252.716 434.816 247.116 433.367 241.903 430.375L143.332 373.607C134.353 367.621 128.368 358.643 128.368 346.768V233.232C128.368 221.261 134.353 212.379 143.332 206.393L241.903 149.626C252.33 143.64 264.301 143.64 273.28 149.626L322.517 178.009C321.552 178.396 320.683 178.878 319.814 179.361L247.599 220.971C247.116 221.357 246.537 221.647 246.055 222.033L200.679 248.197C196.238 251.189 193.245 255.63 193.245 261.616V318.384C193.245 324.37 196.238 328.811 200.679 331.803L246.055 357.967C246.537 358.353 247.02 358.739 247.599 359.029L319.814 400.639C320.683 401.122 321.648 401.605 322.517 401.991L273.28 430.375C268.839 433.367 263.529 434.816 258.122 434.816Z" fill="white" fill-opacity="0.2464"/>
</svg>
