<svg width="51" height="76" viewBox="0 0 51 76" fill="none" xmlns="http://www.w3.org/2000/svg">
<path id="Path-copy-4" fill-rule="evenodd" clip-rule="evenodd" d="M16.7953 0.000152588C18.2054 0.000152588 19.6659 0.377846 21.0256 1.15844L46.7347 15.9645C49.0765 17.5257 50.6377 19.8674 50.6377 22.9646L50.6377 52.5767C50.6377 55.699 49.0765 58.0156 46.7347 59.5768L21.0256 74.3828C18.3062 75.944 15.1838 75.944 12.842 74.3828L6.86646e-05 66.9798C0.251873 66.8791 0.478508 66.7532 0.705128 66.6273L19.54 55.7746C19.6659 55.6738 19.817 55.5983 19.9429 55.4976L31.7776 48.6737C32.9359 47.8931 33.7165 46.7348 33.7165 45.1737L33.7165 30.3676C33.7165 28.8064 32.9359 27.6481 31.7776 26.8675L19.9429 20.0437C19.817 19.943 19.6911 19.8422 19.54 19.7667L0.705128 8.91399C0.478508 8.78809 0.226692 8.66218 6.86646e-05 8.56146L12.842 1.15844C14.0003 0.377846 15.3852 0.000152588 16.7953 0.000152588Z" fill="white" fill-opacity="0.2464"/>
</svg>
