<svg width="85" height="152" viewBox="0 0 85 152" fill="none" xmlns="http://www.w3.org/2000/svg">
<g id="Group 5684">
<path id="Vector" d="M61.2637 130.434L22.5364 108.149L21.3025 107.193L20.1946 106.135L19.2126 104.977L18.3816 103.693L17.727 102.308L17.2485 100.822L16.9464 99.2356L16.8708 97.7248V53.1305L16.9464 51.8463L17.2485 50.2599L17.5759 49.1268L18.2054 47.7167L18.986 46.4073L20.1946 44.9469L21.3025 43.8893L22.7127 42.8317L61.2637 20.6227L63.253 19.691L84.48 7.47856L74.8611 1.9137L73.5517 1.23384L72.0661 0.679872L70.5805 0.276977L69.0193 0.0755379L67.3825 0L65.3429 0.176265L63.1774 0.654682L61.0371 1.41009L59.1989 2.31659L7.83107 31.9035L6.34544 32.9862L4.80944 34.346L3.47488 35.8316L2.5684 37.0906L1.56118 38.8281L0.805773 40.7669L0.276977 42.7814L0.0251742 45.0979L0 105.077L0.100727 107.092L0.478432 109.182L1.10794 111.196L1.98925 113.034L3.09718 114.747L4.38138 116.283L5.8922 117.718L7.5541 119.002L59.4256 148.891L61.4652 149.848L63.6055 150.553L65.7206 150.956L67.6595 151.082L68.9437 151.032L70.4797 150.805L71.9654 150.427L73.451 149.873L74.8359 149.193L84.48 143.603L63.3033 131.416L61.2637 130.434Z" fill="white"/>
<path id="Path-copy-2" fill-rule="evenodd" clip-rule="evenodd" d="M67.7383 132.305C65.6232 132.305 63.4325 131.726 61.3929 130.543L22.8418 108.359C19.3418 106.017 17 102.517 17 97.8333V53.4656C17 48.782 19.3418 45.282 22.8418 42.9402L61.3929 20.7563C65.4721 18.4146 70.1557 18.4146 73.6557 20.7563L84.4077 26.9507L60.4109 40.7495C60.285 40.825 60.1591 40.9258 60.0332 41.0013L37.7486 53.8433C35.4068 55.4045 33.8456 57.7462 33.8456 60.8434V90.4303C33.8456 93.5526 35.4068 95.8692 37.7486 97.4304L60.0332 110.272C60.1591 110.373 60.285 110.449 60.4109 110.524L84.4077 124.323L73.6557 130.517C71.8931 131.726 69.8535 132.305 67.7383 132.305Z" fill="white" fill-opacity="0.5044"/>
</g>
</svg>
