<svg width="336" height="600" viewBox="0 0 336 600" fill="none" xmlns="http://www.w3.org/2000/svg">
<path d="M243.3 518L89.5 429.5L84.6 425.7L80.2 421.5L76.3 416.9L73 411.8L70.4 406.3L68.5 400.4L67.3 394.1L67 388.1V211L67.3 205.9L68.5 199.6L69.8 195.1L72.3 189.5L75.4 184.3L80.2 178.5L84.6 174.3L90.2 170.1L243.3 81.9L251.2 78.2L335.5 29.7L297.3 7.59998L292.1 4.90002L286.2 2.70001L280.3 1.09998L274.1 0.299988L267.6 0L259.5 0.700012L250.9 2.59998L242.4 5.59998L235.1 9.20001L31.1 126.7L25.2 131L19.1 136.4L13.8 142.3L10.2 147.3L6.20001 154.2L3.20001 161.9L1.09998 169.9L0.0999756 179.1L0 417.3L0.400024 425.3L1.90002 433.6L4.40002 441.6L7.90002 448.9L12.3 455.7L17.4 461.8L23.4 467.5L30 472.6L236 591.3L244.1 595.1L252.6 597.9L261 599.5L268.7 600L273.8 599.8L279.9 598.9L285.8 597.4L291.7 595.2L297.2 592.5L335.5 570.3L251.4 521.9L243.3 518Z" fill="white"/>
<path fill-rule="evenodd" clip-rule="evenodd" d="M268.5 525C260.1 525 251.4 522.7 243.3 518L90.2 429.9C76.3 420.6 67 406.7 67 388.1V211.9C67 193.3 76.3 179.4 90.2 170.1L243.3 81.9999C259.5 72.6999 278.1 72.6999 292 81.9999L334.7 106.6L239.4 161.4C238.9 161.7 238.4 162.1 237.9 162.4L149.4 213.4C140.1 219.6 133.9 228.9 133.9 241.2V358.7C133.9 371.1 140.1 380.3 149.4 386.5L237.9 437.5C238.4 437.9 238.9 438.2 239.4 438.5L334.7 493.3L292 517.9C285 522.7 276.9 525 268.5 525Z" fill="#909092"/>
<path fill-rule="evenodd" clip-rule="evenodd" d="M268.3 450C262.7 450 256.9 448.5 251.5 445.4L149.4 386.6C140.1 380.4 133.9 371.1 133.9 358.8V241.2C133.9 228.8 140.1 219.6 149.4 213.4L251.5 154.6C262.3 148.4 274.7 148.4 284 154.6L335 184C334 184.4 333.1 184.9 332.2 185.4L257.4 228.5C256.9 228.9 256.3 229.2 255.8 229.6L208.8 256.7C204.2 259.8 201.1 264.4 201.1 270.6V329.4C201.1 335.6 204.2 340.2 208.8 343.3L255.8 370.4C256.3 370.8 256.8 371.2 257.4 371.5L332.2 414.6C333.1 415.1 334.1 415.6 335 416L284 445.4C279.4 448.5 273.9 450 268.3 450Z" fill="#565659"/>
</svg>
