<svg width="85" height="152" viewBox="0 0 85 152" fill="none" xmlns="http://www.w3.org/2000/svg">
<g id="Group 5684">
<path id="Vector" d="M23.2162 20.6479L61.9436 42.9325L63.1774 43.8894L64.2854 44.947L65.2674 46.1052L66.0983 47.3894L66.753 48.7744L67.2315 50.26L67.5336 51.8464L67.6092 53.3572L67.6092 97.9515L67.5336 99.2357L67.2315 100.822L66.9041 101.955L66.2746 103.365L65.494 104.675L64.2854 106.135L63.1774 107.193L61.7673 108.25L23.2162 130.459L21.227 131.391L0 143.603L9.61887 149.168L10.9283 149.848L12.4139 150.402L13.8995 150.805L15.4607 151.006L17.0974 151.082L19.137 150.906L21.3025 150.427L23.4429 149.672L25.2811 148.765L76.6489 119.179L78.1345 118.096L79.6705 116.736L81.0051 115.25L81.9116 113.991L82.9188 112.254L83.6742 110.315L84.203 108.301L84.4548 105.984L84.48 46.0045L84.3793 43.9901L84.0015 41.9001L83.372 39.8857L82.4907 38.0475L81.3828 36.3353L80.0986 34.7993L78.5878 33.364L76.9259 32.0798L25.0544 2.19077L23.0148 1.23393L20.8745 0.52887L18.7593 0.125992L16.8205 9.15527e-05L15.5362 0.0504303L14.0003 0.277069L12.5146 0.65477L11.029 1.20876L9.64407 1.88861L0 7.47862L21.1766 19.6659L23.2162 20.6479Z" fill="white"/>
<path id="Path-copy-2" fill-rule="evenodd" clip-rule="evenodd" d="M16.6694 19C18.7845 19 20.9752 19.5792 23.0148 20.7626L61.5659 42.9465C65.0659 45.2883 67.4077 48.7883 67.4077 53.4719L67.4077 97.8396C67.4077 102.523 65.0659 106.023 61.5659 108.365L23.0148 130.549C18.9356 132.891 14.2521 132.891 10.752 130.549L1.52588e-05 124.354L23.9968 110.556C24.1227 110.48 24.2486 110.379 24.3745 110.304L46.6591 97.4619C49.0009 95.9007 50.5621 93.559 50.5621 90.4618L50.5621 60.8749C50.5621 57.7525 49.0009 55.4359 46.6591 53.8748L24.3745 41.0328C24.2486 40.9321 24.1227 40.8565 23.9968 40.781L1.52588e-05 26.9822L10.752 20.7878C12.5146 19.5792 14.5542 19 16.6694 19Z" fill="white" fill-opacity="0.5044"/>
<path id="Path-copy-4" fill-rule="evenodd" clip-rule="evenodd" d="M16.7953 38.0002C18.2054 38.0002 19.6659 38.3778 21.0256 39.1584L46.7347 53.9645C49.0765 55.5257 50.6377 57.8674 50.6377 60.9646L50.6377 90.5767C50.6377 93.699 49.0765 96.0156 46.7347 97.5768L21.0256 112.383C18.3062 113.944 15.1838 113.944 12.842 112.383L6.86646e-05 104.98C0.251873 104.879 0.478508 104.753 0.705128 104.627L19.54 93.7746C19.6659 93.6738 19.817 93.5983 19.9429 93.4976L31.7776 86.6737C32.9359 85.8931 33.7165 84.7348 33.7165 83.1737L33.7165 68.3676C33.7165 66.8064 32.9359 65.6481 31.7776 64.8675L19.9429 58.0437C19.817 57.943 19.6911 57.8422 19.54 57.7667L0.705128 46.914C0.478508 46.7881 0.226692 46.6622 6.86646e-05 46.5615L12.842 39.1584C14.0003 38.3778 15.3852 38.0002 16.7953 38.0002Z" fill="white" fill-opacity="0.2464"/>
</g>
</svg>
