<svg width="85" height="152" viewBox="0 0 85 152" fill="none" xmlns="http://www.w3.org/2000/svg">
<path id="Vector" d="M61.2637 130.434L22.5364 108.149L21.3025 107.193L20.1946 106.135L19.2126 104.977L18.3816 103.693L17.727 102.308L17.2485 100.822L16.9464 99.2356L16.8708 97.7248V53.1305L16.9464 51.8463L17.2485 50.2599L17.5759 49.1268L18.2054 47.7167L18.986 46.4073L20.1946 44.9469L21.3025 43.8893L22.7127 42.8317L61.2637 20.6227L63.253 19.691L84.48 7.47856L74.8611 1.9137L73.5517 1.23384L72.0661 0.679872L70.5805 0.276977L69.0193 0.0755379L67.3825 0L65.3429 0.176265L63.1774 0.654682L61.0371 1.41009L59.1989 2.31659L7.83107 31.9035L6.34544 32.9862L4.80944 34.346L3.47488 35.8316L2.5684 37.0906L1.56118 38.8281L0.805773 40.7669L0.276977 42.7814L0.0251742 45.0979L0 105.077L0.100727 107.092L0.478432 109.182L1.10794 111.196L1.98925 113.034L3.09718 114.747L4.38138 116.283L5.8922 117.718L7.5541 119.002L59.4256 148.891L61.4652 149.848L63.6055 150.553L65.7206 150.956L67.6595 151.082L68.9437 151.032L70.4797 150.805L71.9654 150.427L73.451 149.873L74.8359 149.193L84.48 143.603L63.3033 131.416L61.2637 130.434Z" fill="white"/>
</svg>
