<svg width="49" height="88" viewBox="0 0 49 88" fill="none" xmlns="http://www.w3.org/2000/svg">
<g id="Group 5681">
<g id="Group 5686">
<path id="Path-copy-2" fill-rule="evenodd" clip-rule="evenodd" d="M39.3556 11C38.1319 11 36.8644 11.3373 35.6844 12.0267L13.3799 24.9488C11.3549 26.3128 10 28.3516 10 31.0798L10 56.9239C10 59.652 11.3549 61.6908 13.3799 63.0549L35.6844 75.9769C38.0445 77.341 40.7542 77.341 42.7792 75.9769L49 72.3687L35.1162 64.331C35.0433 64.287 34.9705 64.2283 34.8977 64.1843L22.0045 56.7039C20.6496 55.7945 19.7464 54.4304 19.7464 52.6263L19.7464 35.392C19.7464 33.5733 20.6496 32.2238 22.0045 31.3145L34.8977 23.834C34.9705 23.7754 35.0433 23.7314 35.1162 23.6874L49 15.6496L42.7792 12.0414C41.7594 11.3373 40.5794 11 39.3556 11Z" fill="white" fill-opacity="0.5044"/>
<path id="Path-copy-4" fill-rule="evenodd" clip-rule="evenodd" d="M39.3814 22C38.5739 22 37.7374 22.22 36.9587 22.6745L22.2352 31.2971C20.8941 32.2063 20 33.5701 20 35.3738L20 52.6189C20 54.4373 20.8941 55.7864 22.2352 56.6955L36.9587 65.3181C38.5162 66.2273 40.3043 66.2273 41.6454 65.3181L49 61.0068C48.8558 60.9482 48.726 60.8748 48.5962 60.8015L37.8095 54.4812C37.7374 54.4226 37.6509 54.3786 37.5788 54.3199L30.8011 50.3459C30.1377 49.8913 29.6907 49.2168 29.6907 48.3076L29.6907 39.685C29.6907 38.7759 30.1377 38.1013 30.8011 37.6467L37.5788 33.6727C37.6509 33.6141 37.723 33.5554 37.8095 33.5114L48.5962 27.1911C48.726 27.1178 48.8702 27.0445 49 26.9858L41.6454 22.6745C40.9821 22.22 40.189 22 39.3814 22Z" fill="white" fill-opacity="0.2464"/>
</g>
</g>
</svg>
