<svg width="68" height="114" viewBox="0 0 68 114" fill="none" xmlns="http://www.w3.org/2000/svg">
<g id="Group 5685">
<path id="Path-copy-4" fill-rule="evenodd" clip-rule="evenodd" d="M16.7953 19.0002C18.2054 19.0002 19.6659 19.3778 21.0256 20.1584L46.7347 34.9645C49.0765 36.5257 50.6377 38.8674 50.6377 41.9646L50.6377 71.5767C50.6377 74.699 49.0765 77.0156 46.7347 78.5768L21.0256 93.3828C18.3062 94.944 15.1838 94.944 12.842 93.3828L6.86646e-05 85.9798C0.251873 85.8791 0.478508 85.7532 0.705128 85.6273L19.54 74.7746C19.6659 74.6738 19.817 74.5983 19.9429 74.4976L31.7776 67.6737C32.9359 66.8931 33.7165 65.7348 33.7165 64.1737L33.7165 49.3676C33.7165 47.8064 32.9359 46.6481 31.7776 45.8675L19.9429 39.0437C19.817 38.943 19.6911 38.8422 19.54 38.7667L0.705128 27.914C0.478508 27.7881 0.226692 27.6622 6.86646e-05 27.5615L12.842 20.1584C14.0003 19.3778 15.3852 19.0002 16.7953 19.0002Z" fill="white" fill-opacity="0.2464"/>
<path id="Path-copy-2" fill-rule="evenodd" clip-rule="evenodd" d="M16.6694 2.28882e-05C18.7845 2.28882e-05 20.9752 0.57917 23.0148 1.76264L61.5659 23.9465C65.0659 26.2883 67.4077 29.7883 67.4077 34.4719L67.4077 78.8396C67.4077 83.5231 65.0659 87.0232 61.5659 89.365L23.0148 111.549C18.9356 113.891 14.2521 113.891 10.752 111.549L1.52588e-05 105.354L23.9968 91.5557C24.1227 91.4801 24.2486 91.3794 24.3745 91.3039L46.6591 78.4619C49.0009 76.9007 50.5621 74.559 50.5621 71.4618L50.5621 41.8749C50.5621 38.7525 49.0009 36.4359 46.6591 34.8748L24.3745 22.0328C24.2486 21.9321 24.1227 21.8565 23.9968 21.781L1.52588e-05 7.98217L10.752 1.78782C12.5146 0.579163 14.5542 2.28882e-05 16.6694 2.28882e-05Z" fill="white" fill-opacity="0.5044"/>
</g>
</svg>
