<svg width="16" height="17" viewBox="0 0 16 17" fill="none" xmlns="http://www.w3.org/2000/svg">
<g id="Group 44">
<path id="Ellipse 54" d="M15.5 8.5C15.5 6.88069 14.9928 5.30205 14.0496 3.9858C13.1063 2.66955 11.7745 1.6818 10.2412 1.16129C8.70778 0.640781 7.04988 0.613651 5.50029 1.08371C3.95071 1.55377 2.58729 2.49741 1.60151 3.7821C0.615737 5.06679 0.0571319 6.62798 0.00414945 8.24643C-0.048833 9.86487 0.406469 11.4593 1.30611 12.8057C2.20575 14.1521 3.50454 15.1829 5.02006 15.7533C6.53559 16.3237 8.19171 16.405 9.75585 15.9859" stroke="#9E9E9B" stroke-linecap="round"/>
<circle id="Ellipse 55" cx="7.75011" cy="8.50011" r="3.44444" stroke="#9E9E9B"/>
<path id="Vector 97" d="M11.1943 5.9165V9.7915C11.1943 10.9804 12.1582 11.9443 13.3471 11.9443V11.9443C14.5361 11.9443 15.4999 10.9804 15.4999 9.7915V8.49984" stroke="#9E9E9B" stroke-linecap="round"/>
</g>
</svg>
