<svg width="49" height="88" viewBox="0 0 49 88" fill="none" xmlns="http://www.w3.org/2000/svg">
<g id="Group 5681">
<path id="Path-copy-4" fill-rule="evenodd" clip-rule="evenodd" d="M39.3814 22C38.5739 22 37.7374 22.22 36.9587 22.6745L22.2352 31.2971C20.8941 32.2063 20 33.5701 20 35.3738L20 52.6189C20 54.4373 20.8941 55.7864 22.2352 56.6955L36.9587 65.3181C38.5162 66.2273 40.3043 66.2273 41.6454 65.3181L49 61.0068C48.8558 60.9482 48.726 60.8748 48.5962 60.8015L37.8095 54.4812C37.7374 54.4226 37.6509 54.3786 37.5788 54.3199L30.8011 50.3459C30.1377 49.8913 29.6907 49.2168 29.6907 48.3076L29.6907 39.685C29.6907 38.7759 30.1377 38.1013 30.8011 37.6467L37.5788 33.6727C37.6509 33.6141 37.723 33.5554 37.8095 33.5114L48.5962 27.1911C48.726 27.1178 48.8702 27.0445 49 26.9858L41.6454 22.6745C40.9821 22.22 40.189 22 39.3814 22Z" fill="white" fill-opacity="0.2464"/>
</g>
</svg>
