<svg width="57" height="43" viewBox="0 0 57 43" fill="none" xmlns="http://www.w3.org/2000/svg">
<g id="Group 41">
<path id="Vector" d="M21.2559 0.00882281H37.9831C41.0482 0.00882281 42.41 1.35298 42.4298 4.38507C42.4453 6.7032 42.4453 6.70319 44.77 6.70319C46.1164 6.70319 47.4649 6.68997 48.8113 6.70319C50.8254 6.72523 52.2885 7.71684 52.9496 9.59206C55.6489 17.267 56.916 25.1954 56.9997 33.3133C57.0261 35.9575 55.2743 37.6476 52.6521 37.7204C52.4665 37.7347 52.2802 37.7347 52.0946 37.7204C50.5742 37.5132 49.5627 37.7666 48.8642 39.5008C48.0555 41.5039 46.1296 42.3192 43.9282 42.1451C41.7798 41.982 40.2065 40.867 39.5212 38.8684C39.1554 37.8239 38.6397 37.6961 37.7186 37.7005C31.5399 37.727 25.3604 37.727 19.1802 37.7005C18.4067 37.7005 17.9704 37.8173 17.673 38.6877C16.9061 40.9287 14.9736 42.1759 12.6555 42.1561C10.3968 42.1341 8.52823 40.8758 7.78343 38.6855C7.50358 37.8592 7.12236 37.5948 6.31146 37.6653C5.57327 37.727 4.82626 37.6829 4.08367 37.6763C1.50772 37.6565 0.0335429 36.222 0.013711 33.6218C-0.0171387 29.8118 0.013711 26.0019 0.013711 22.1897C0.013711 16.2886 0.013711 10.3875 0.013711 4.48642C0.013711 1.40145 1.45263 0.00220355 4.54641 0L21.2559 0.00882281Z" fill="#070707"/>
<path id="Vector_2" d="M21.2894 1.66808C26.9129 1.66808 32.5363 1.66808 38.1598 1.66808C40.143 1.66808 40.8239 2.34457 40.8327 4.35201C40.8503 7.5141 40.8327 10.674 40.8327 13.8273C40.8327 14.1534 40.8327 14.4773 40.8327 14.8034C40.8459 15.3433 40.9164 15.8854 41.615 15.8854C42.3135 15.8854 42.4126 15.372 42.4148 14.8167C42.4148 13.0053 42.4523 11.1918 42.4148 9.38051C42.3928 8.59604 42.6352 8.33382 43.4329 8.35806C45.2442 8.41315 47.0577 8.39111 48.8712 8.35806C50.1493 8.34484 51.0329 8.96403 51.4274 10.1209C52.8335 14.2863 53.8919 18.5612 54.5917 22.9015C54.7503 23.8534 54.3823 24.065 53.4899 24.0429C51.1695 23.9856 48.8448 24.0231 46.5201 24.0253C46.2424 24.0253 45.9626 24.0253 45.6849 24.0253C45.0569 24.0429 44.5391 24.2809 44.5831 24.9772C44.6184 25.6383 45.1583 25.6956 45.7136 25.6934C48.4085 25.6802 51.1056 25.7331 53.7984 25.6625C54.7217 25.6383 55.0147 25.9688 55.05 26.8106C55.1381 28.9899 55.3188 31.1692 55.3563 33.3507C55.3827 34.9681 54.4176 35.9553 52.8288 36.1294C52.4168 36.1757 51.9893 36.1052 51.5772 36.1624C50.2969 36.3387 49.572 35.9884 49.0497 34.62C48.2719 32.5729 46.4363 31.5835 44.2945 31.6253C42.0424 31.6716 40.2377 32.7712 39.4951 34.9858C39.147 36.0236 38.6291 36.1757 37.6992 36.1713C31.5176 36.1434 25.3366 36.1434 19.1564 36.1713C18.3609 36.1713 17.9576 36.0082 17.6756 35.1422C17.3281 34.1111 16.6671 33.2143 15.7849 32.5773C14.9028 31.9402 13.8436 31.5948 12.7555 31.5892C11.6674 31.5836 10.6048 31.9182 9.71618 32.5461C8.82755 33.1741 8.15735 34.064 7.79928 35.0915C7.5018 35.9465 7.06771 36.1382 6.28324 36.0853C5.58912 36.0391 4.8906 36.0853 4.19428 36.0699C2.38076 36.0346 1.6624 35.3317 1.65358 33.5314C1.63816 30.0939 1.65358 26.6541 1.65358 23.2144C1.65358 16.9872 1.65358 10.7592 1.65358 4.53049C1.65358 2.3027 2.31465 1.66588 4.57108 1.66588L21.2894 1.66808Z" fill="white"/>
<path id="Vector_3" d="M16.3575 36.8808C16.3644 37.3571 16.2771 37.8301 16.1006 38.2726C15.924 38.715 15.6616 39.1181 15.3286 39.4587C14.9956 39.7993 14.5984 40.0707 14.1601 40.2572C13.7217 40.4437 13.2508 40.5416 12.7745 40.5453C12.2991 40.561 11.8254 40.4807 11.3817 40.3092C10.9381 40.1377 10.5335 39.8785 10.1923 39.5472C9.85105 39.2158 9.58011 38.8191 9.39566 38.3806C9.21122 37.9422 9.11705 37.4711 9.11879 36.9954C9.10117 34.9086 10.7318 33.2075 12.7282 33.2075C14.6629 33.2273 16.3442 34.9263 16.3575 36.8808Z" fill="white"/>
<path id="Vector_4" d="M47.9486 36.8896C47.9486 38.9609 46.4282 40.5299 44.3987 40.5475C43.9105 40.554 43.426 40.4628 42.9736 40.2793C42.5212 40.0958 42.11 39.8237 41.7643 39.479C41.4185 39.1343 41.1452 38.7239 40.9604 38.2721C40.7755 37.8202 40.6829 37.3359 40.6879 36.8477C40.7232 34.924 42.4508 33.2075 44.3701 33.2119C46.3224 33.2075 47.9486 34.8844 47.9486 36.8896Z" fill="white"/>
<path id="Vector_5" d="M35.3738 16.9606C34.9926 23.0579 30.0324 27.7845 23.7346 28.0533C17.8093 28.3045 12.404 23.7652 11.571 17.8399C10.2643 8.53867 19.2394 1.38154 27.8773 4.83891C28.2173 4.98355 28.5497 5.14536 28.8733 5.3237C29.2898 5.54405 29.2655 5.92746 29.1884 6.29325C29.087 6.77803 28.6816 6.80668 28.307 6.73396C27.9058 6.6297 27.5131 6.4949 27.1325 6.33072C25.8215 5.82509 24.4212 5.59154 23.0171 5.64428C21.6129 5.69702 20.2341 6.03495 18.9647 6.6375C17.6953 7.24005 16.5618 8.09461 15.6331 9.14918C14.7045 10.2037 14.0002 11.4363 13.563 12.7717C11.7297 18.3577 14.8852 24.3932 20.4866 25.993C26.2158 27.628 32.1323 24.2301 33.5338 18.5009C33.698 17.7757 33.8071 17.0391 33.8599 16.2974C33.9128 15.7178 33.8952 15.0854 34.6907 15.1405C35.4861 15.1956 35.4002 15.8567 35.398 16.4164C35.409 16.5904 35.387 16.7755 35.3738 16.9606Z" fill="#070707"/>
<path id="Vector_6" d="M17.5016 13.6686C17.9908 13.6267 18.2464 13.9925 18.5417 14.2789C19.6743 15.3807 20.8311 16.4582 21.9175 17.6041C22.4948 18.2101 22.8386 18.2255 23.46 17.6041C26.6331 14.5368 29.8657 11.5289 33.0829 8.50344C33.4134 8.19274 33.6845 7.77186 34.2265 7.80051C34.3909 7.80523 34.5496 7.86133 34.6805 7.96093C34.8113 8.06053 34.9076 8.19862 34.9559 8.35579C35.1278 8.84057 34.7906 9.13365 34.4821 9.42452L27.087 16.4164C25.9037 17.5336 24.7072 18.6376 23.5415 19.7702C22.9774 20.3189 22.4706 20.418 21.8712 19.8253C20.2869 18.2563 18.6761 16.7117 17.0939 15.1383C16.8471 14.8937 16.5034 14.6139 16.737 14.182C16.9044 13.8999 17.1138 13.6443 17.5016 13.6686Z" fill="#070707"/>
</g>
</svg>
