<svg width="32" height="43" viewBox="0 0 32 43" fill="none" xmlns="http://www.w3.org/2000/svg">
<g id="Group 45">
<path id="Vector" d="M8.0858 15.5853C8.82824 14.7383 9.26441 15.4035 9.74235 15.807C11.0602 16.9201 12.4058 18.0244 13.6448 19.1995C14.5728 20.0865 15.0368 19.9224 15.6772 18.9024C17.5889 15.9135 19.6074 12.9954 21.5795 10.0331C21.9832 9.42998 22.257 8.67609 23.2546 9.3812C24.2523 10.0863 23.4124 10.4987 23.0969 10.9732C20.4891 14.9157 17.8627 18.8359 15.1807 22.8493C12.8606 20.8581 10.7075 19.0177 8.56838 17.1596C8.09508 16.7472 7.35729 16.4101 8.0858 15.5853Z" fill="#070707"/>
<path id="Vector_2" d="M8.0858 15.5853C8.82824 14.7383 9.26441 15.4035 9.74235 15.807C11.0602 16.9201 12.4058 18.0244 13.6448 19.1995C14.5728 20.0865 15.0368 19.9224 15.6772 18.9024C17.5889 15.9135 19.6074 12.9954 21.5795 10.0331C21.9832 9.42998 22.257 8.67609 23.2546 9.3812C24.2523 10.0863 23.4124 10.4987 23.0969 10.9732C20.4891 14.9157 17.8627 18.8359 15.1807 22.8493C12.8606 20.8581 10.7075 19.0177 8.56838 17.1596C8.09508 16.7472 7.35729 16.4101 8.0858 15.5853Z" fill="#070707"/>
<path id="Vector_3" d="M26.3956 28.3838C25.8666 27.3328 25.4026 26.4858 26.9199 25.723C27.7088 25.3283 28.0846 24.3926 28.0614 23.4436C28.0336 22.2995 28.6229 21.5944 29.5695 20.938C31.2539 19.7673 31.7968 18.1619 30.8131 16.3216C30.5621 15.8758 30.4346 15.3762 30.4427 14.8701C30.4508 14.364 30.5943 13.8683 30.8595 13.4302C31.755 11.6563 31.2353 10.1042 29.6391 8.99549C29.1671 8.70003 28.7749 8.30222 28.4943 7.83444C28.2137 7.36667 28.0526 6.84217 28.0243 6.30365C27.834 4.39231 26.5858 3.24817 24.5813 3.10626C24.0511 3.08797 23.5336 2.94582 23.0742 2.69226C22.6147 2.43869 22.2272 2.08143 21.9456 1.65169C20.7392 0.0374775 19.0734 -0.441466 17.1337 0.445466C16.7082 0.682779 16.2259 0.811139 15.7333 0.818131C15.2406 0.825123 14.7545 0.71051 14.3218 0.485378C12.3126 -0.490247 10.6096 0.0419123 9.32429 1.74926C9.0595 2.14435 8.69809 2.47192 8.27125 2.70371C7.8444 2.93549 7.36495 3.06452 6.87427 3.07965C4.75834 3.22156 3.4962 4.37458 3.31987 6.39678C3.29445 6.90145 3.14251 7.39289 2.87683 7.82971C2.61115 8.26652 2.23952 8.63593 1.79325 8.9068C0.108856 10.0731 -0.438688 11.674 0.545035 13.5144C0.802804 13.959 0.933772 14.4606 0.924814 14.9689C0.915856 15.4771 0.767286 15.9742 0.493993 16.4102C-0.327322 17.9092 -0.150995 19.6653 1.2225 20.4014C3.95558 21.8205 2.64241 25.5323 5.55181 26.7253C5.91375 26.8716 5.35228 27.6432 5.13883 28.0911C4.00662 30.4592 2.85121 32.8185 1.70972 35.2176C0.600717 37.5192 0.753844 37.9228 3.27347 37.6966C6.52161 37.3906 9.083 38.0824 10.6421 41.0182C10.726 41.1408 10.8223 41.2552 10.9298 41.3596C11.8114 42.4373 12.5028 42.3441 13.0782 41.0803C13.8578 39.3552 14.6791 37.639 15.7185 35.4216C16.6465 37.435 17.3426 39.0181 18.085 40.5836C19.013 42.5437 19.6302 42.7255 20.7995 40.9162C22.5396 38.2554 24.8179 37.1689 28.015 37.7454C28.2436 37.7632 28.4732 37.7632 28.7018 37.7454C30.4372 37.8119 30.6553 37.0935 29.9546 35.7143C28.7296 33.262 27.616 30.8052 26.3956 28.3838ZM5.09707 22.9868C5.09228 22.3266 4.90905 21.6788 4.56516 21.1061C4.22126 20.5335 3.72836 20.0555 3.13427 19.7185C1.91853 18.9779 1.57516 18.0156 2.33151 16.7428C2.67938 16.1707 2.85796 15.519 2.84815 14.8574C2.83834 14.1958 2.64051 13.5491 2.27583 12.9867C1.57516 11.7849 1.95102 10.8714 3.06466 10.1884C3.68798 9.82919 4.20406 9.32269 4.56326 8.71767C4.92246 8.11264 5.11269 7.42944 5.11563 6.73382C5.16667 5.50541 5.85806 4.86682 7.13412 4.82248C7.86202 4.81804 8.57638 4.63405 9.20803 4.28832C9.83969 3.94259 10.3672 3.44683 10.7396 2.84905C11.4634 1.77586 12.4332 1.46987 13.6768 2.1262C14.2679 2.47068 14.9458 2.65513 15.6381 2.65982C16.3303 2.66451 17.0109 2.48926 17.607 2.15281C18.9573 1.42109 19.9272 1.80691 20.7067 2.95548C21.0637 3.52077 21.5674 3.98841 22.1689 4.31316C22.7705 4.6379 23.4496 4.80875 24.1405 4.80917C25.1706 4.84021 26.094 5.25264 26.1497 6.21939C26.1514 7.09617 26.393 7.95728 26.8504 8.71729C27.3079 9.4773 27.9653 10.1098 28.7575 10.5521C29.2215 10.8137 29.4767 11.3104 29.37 12.3037C28.0753 13.8869 28.5069 15.8515 29.37 17.918C29.6762 18.632 28.9384 19.275 28.2749 19.6919C27.6482 20.048 27.1301 20.5546 26.7719 21.1615C26.4137 21.7683 26.228 22.4542 26.2332 23.1509C26.1821 24.3749 25.4722 25.0135 24.2008 25.0578C23.4742 25.0625 22.7612 25.2467 22.1311 25.5924C21.501 25.9382 20.9751 26.4339 20.6046 27.0313C19.8807 28.1044 18.9156 28.4237 17.6674 27.7497C17.0772 27.4029 16.3989 27.217 15.7061 27.2123C15.0133 27.2076 14.3324 27.3843 13.7371 27.7231C12.3868 28.4548 11.417 28.0645 10.6375 26.916C10.2788 26.3521 9.77473 25.8857 9.17356 25.5611C8.57239 25.2366 7.89417 25.0648 7.20372 25.0623C5.82558 25.0002 5.14811 24.3084 5.09707 22.9868ZM11.8486 39.4306C8.60042 36.1046 8.60042 36.1046 3.43588 35.8828C4.82794 32.9826 6.13183 30.1887 7.49141 27.4171C7.83479 26.712 8.45658 26.9736 8.74427 27.4171C10.4426 30.0513 12.6838 30.3351 15.389 28.9781C15.6164 28.8672 15.9737 29.0047 16.5537 29.0446L11.8486 39.4306ZM19.7137 39.6833C18.8785 37.9095 18.2242 36.4993 17.5838 35.1068C16.3171 32.375 17.0781 30.6544 20.0896 29.6167C21.1568 29.2486 21.7879 28.4681 22.4375 27.6477C22.9433 27.0046 23.5326 26.5479 24.0755 27.7142C25.3423 30.406 26.6601 33.0757 28.1403 36.14C24.34 35.4793 21.3285 36.0292 19.7137 39.6833Z" fill="#070707"/>
<path id="Vector_4" d="M23.0966 10.9821C20.4888 14.9157 17.8625 18.8359 15.1804 22.8493C12.8603 20.8581 10.7073 19.0177 8.56815 17.1596C8.10413 16.7472 7.35705 16.4101 8.10413 15.5853C8.8512 14.7604 9.28274 15.4035 9.76068 15.807C11.0785 16.9201 12.4242 18.0244 13.6631 19.1995C14.5911 20.0865 15.0551 19.9224 15.6955 18.9024C17.6073 15.9135 19.6257 12.9954 21.5978 10.0331C22.0015 9.42998 22.2753 8.67609 23.2729 9.3812C24.2706 10.0863 23.4121 10.5076 23.0966 10.9821Z" fill="#070707"/>
<path id="Vector_5" d="M23.0966 10.9821C20.4888 14.9157 17.8625 18.8359 15.1804 22.8493C12.8603 20.8581 10.7073 19.0177 8.56815 17.1596C8.10413 16.7472 7.35705 16.4101 8.10413 15.5853C8.8512 14.7604 9.28274 15.4035 9.76068 15.807C11.0785 16.9201 12.4242 18.0244 13.6631 19.1995C14.5911 20.0865 15.0551 19.9224 15.6955 18.9024C17.6073 15.9135 19.6257 12.9954 21.5978 10.0331C22.0015 9.42998 22.2753 8.67609 23.2729 9.3812C24.2706 10.0863 23.4121 10.5076 23.0966 10.9821Z" fill="#070707"/>
</g>
</svg>
