<svg width="43" height="43" viewBox="0 0 43 43" fill="none" xmlns="http://www.w3.org/2000/svg">
<g id="Group 40">
<path id="Vector" d="M10.5415 32.2231C11.2561 32.8093 11.9619 33.4045 12.6831 33.9797C13.1677 34.3669 13.4354 34.8249 12.9907 35.3603C12.5858 35.847 12.1057 35.6921 11.6632 35.3271C10.3181 34.2223 8.96776 33.122 7.61229 32.0261C6.89768 31.4465 6.91095 30.8934 7.61229 30.3182C8.93974 29.2474 10.2495 28.1633 11.5703 27.0858C12.0128 26.7186 12.5039 26.4221 12.9796 26.9929C13.4553 27.5637 13.1389 27.9819 12.6676 28.3646C11.953 28.9443 11.2495 29.5372 10.4906 30.1633C16.1301 31.243 20.9907 27.2385 21.2076 21.4398C21.4067 16.1543 24.9974 12.0083 30.1988 11.1543C31.3249 10.9684 32.4931 11.0127 33.8802 10.933C33.0484 10.2472 32.3493 9.68523 31.6678 9.10337C31.2076 8.71398 30.7408 8.26929 31.2807 7.64981C31.7519 7.10777 32.2408 7.38211 32.6988 7.75822C34.0115 8.84525 35.3294 9.92417 36.6524 10.995C37.3758 11.5791 37.3493 12.1277 36.6524 12.6985C35.2984 13.7944 33.9481 14.894 32.6015 15.9972C32.159 16.3623 31.7165 16.5105 31.274 16.0194C30.8315 15.5282 31.0528 15.0924 31.4953 14.7251L33.7475 12.8645C28.5351 11.6012 23.0416 15.8335 22.9067 21.2141C22.8005 25.1964 21.2098 28.3093 17.8447 30.462C16.402 31.3882 14.7371 31.91 13.0238 31.9731C12.223 32.0062 11.4176 31.9731 10.6123 31.9731L10.5415 32.2231Z" fill="#070707"/>
<path id="Vector_2" d="M11.4837 10.0259L9.77351 12.11C9.40182 12.5525 8.97483 12.9308 8.40403 12.475C7.83322 12.0193 8.05668 11.5392 8.44385 11.0702C9.55005 9.72724 10.643 8.37323 11.7426 7.02588C12.2868 6.36215 12.8355 6.38206 13.3709 7.02588C14.4992 8.402 15.6239 9.77959 16.7448 11.1587C17.1143 11.6011 17.2138 12.0768 16.7028 12.4662C16.1917 12.8556 15.7824 12.6321 15.4174 12.1808C14.8222 11.4418 14.2028 10.7228 13.5346 9.92414C12.8709 14.3025 14.8134 18.0636 18.601 19.88C19.1563 20.1455 19.8931 20.3446 19.517 21.1809C19.1165 22.0659 18.424 21.6698 17.84 21.3778C14.0191 19.4707 11.9483 16.3954 11.7315 12.1078C11.6983 11.4441 11.7049 10.7958 11.6872 10.141C11.6872 10.121 11.6275 10.0989 11.4837 10.0259Z" fill="#070707"/>
<path id="Vector_3" d="M32.7895 32.9553L34.4753 30.9089C34.8426 30.4664 35.2607 30.0615 35.8404 30.5239C36.42 30.9863 36.2143 31.462 35.8182 31.9376C34.7076 33.2784 33.6014 34.6242 32.4996 35.9753C31.9443 36.6567 31.4089 36.6124 30.8779 35.9642C29.7717 34.6191 28.6655 33.2629 27.5593 31.9177C27.1611 31.4354 27.0217 30.9354 27.5726 30.5106C28.1235 30.0858 28.5129 30.4155 28.8602 30.8381C29.4443 31.5505 30.0239 32.2651 30.6301 33.0173C31.6235 29.1854 29.431 24.869 25.6699 23.1322C25.4597 23.0349 25.2274 22.9663 25.0261 22.869C24.5637 22.6477 24.2252 22.3513 24.4265 21.7871C24.6478 21.172 25.1411 21.1234 25.6655 21.3159C27.6577 22.0546 29.3786 23.3809 30.6006 25.1192C31.8225 26.8574 32.4878 28.9258 32.5085 31.0505C32.5085 31.6611 32.5085 32.2695 32.5085 32.8779L32.7895 32.9553Z" fill="#070707"/>
<path id="Vector_4" d="M22.3645 3.2272V8.40645C22.3645 9.00823 22.3645 9.66311 21.5503 9.68523C20.6653 9.70957 20.6653 9.00823 20.6653 8.35778V3.24048C19.8578 4.21615 19.256 4.94625 18.6498 5.67413C18.2914 6.10334 17.8622 6.33785 17.3556 5.93298C16.8489 5.52811 16.995 5.04801 17.3556 4.60553C18.4618 3.22499 19.5901 1.84666 20.7206 0.477179C21.2649 -0.186544 21.8269 -0.140083 22.3623 0.505941C23.464 1.84666 24.5614 3.1918 25.6543 4.54138C26.0304 5.00377 26.2318 5.5082 25.6543 5.95068C25.1344 6.35113 24.7163 6.06572 24.3667 5.64094C23.7693 4.93297 23.1831 4.22279 22.3645 3.2272Z" fill="#070707"/>
<path id="Vector_5" d="M22.3642 39.7785C23.1828 38.7829 23.7669 38.0727 24.3554 37.3647C24.7071 36.9377 25.1253 36.6523 25.6452 37.0505C26.2182 37.493 26.0191 37.9975 25.6452 38.4599C24.5478 39.805 23.4475 41.1487 22.3443 42.4909C21.7469 43.221 21.196 43.1236 20.6385 42.4355C19.5699 41.1081 18.4881 39.805 17.415 38.4886C17.0433 38.0351 16.7978 37.5351 17.3575 37.0771C17.9172 36.6191 18.3509 36.9643 18.7248 37.4222C19.2845 38.1103 19.8509 38.7939 20.4947 39.5683C20.8067 38.8205 20.6407 38.1059 20.6629 37.4178C20.6916 36.493 20.6629 35.5638 20.6629 34.6368C20.6629 33.9974 20.6629 33.2961 21.5478 33.3204C22.3509 33.3403 22.362 33.9841 22.362 34.597L22.3642 39.7785Z" fill="#070707"/>
<path id="Vector_6" d="M3.24037 20.6521H8.40635C9.0037 20.6521 9.66521 20.6521 9.69619 21.453C9.73158 22.338 9.03246 22.3535 8.39086 22.3535H3.25365C4.21604 23.1543 4.94393 23.7539 5.66739 24.3601C6.09217 24.7163 6.35987 25.1322 5.94836 25.6499C5.53685 26.1676 5.0634 26.0327 4.62092 25.6809C3.2094 24.5393 1.80231 23.3933 0.417336 22.2296C-0.146829 21.7605 -0.131342 21.2295 0.417336 20.7627C1.8141 19.6034 3.2153 18.4544 4.62092 17.3158C5.0634 16.9596 5.53907 16.8512 5.93509 17.3667C6.33111 17.8822 6.05677 18.3047 5.63199 18.6565C4.94614 19.245 4.23374 19.8335 3.24037 20.6521Z" fill="#070707"/>
<path id="Vector_7" d="M39.7808 22.3535C37.8649 22.3535 36.2852 22.3535 34.7033 22.3535C34.0838 22.3535 33.3493 22.4176 33.3316 21.526C33.3139 20.6344 34.0307 20.6565 34.6591 20.6543H39.7764L37.4224 18.703C36.9799 18.3291 36.6171 17.9021 37.0949 17.3379C37.5728 16.7738 38.0595 17.0459 38.5087 17.4131C39.8361 18.4862 41.1348 19.5703 42.4578 20.6366C43.241 21.2672 43.1348 21.8358 42.4025 22.4243C41.1082 23.4619 39.8273 24.5194 38.5418 25.5681C38.0551 25.9663 37.533 26.2606 37.0529 25.6146C36.6104 25.0172 37.0396 24.6234 37.4821 24.2606C38.1635 23.703 38.8361 23.1389 39.7808 22.3535Z" fill="#070707"/>
<path id="Vector_8" d="M12.2229 20.6411C12.8622 20.6411 13.3291 20.8424 13.3468 21.4574C13.3689 22.1411 12.8932 22.3734 12.2737 22.3601C11.7074 22.3468 11.276 22.1145 11.2848 21.4906C11.2937 20.8667 11.7383 20.6632 12.2229 20.6411Z" fill="#070707"/>
<path id="Vector_9" d="M30.8955 22.3623C30.1654 22.3623 29.7096 22.1654 29.6765 21.5503C29.6433 20.9353 30.0503 20.6654 30.63 20.6477C31.2097 20.63 31.7362 20.8114 31.7362 21.5105C31.7495 22.1543 31.2672 22.3136 30.8955 22.3623Z" fill="#070707"/>
<path id="Vector_10" d="M22.3752 12.1653C22.3752 12.8489 22.1761 13.3069 21.561 13.3379C20.946 13.3688 20.6761 12.964 20.6562 12.3843C20.6363 11.8047 20.8265 11.2781 21.5212 11.2781C22.1518 11.2671 22.3376 11.7405 22.3752 12.1653Z" fill="#070707"/>
<path id="Vector_11" d="M20.6514 30.8735C20.6514 30.1744 20.8328 29.7142 21.4456 29.6677C22.0585 29.6212 22.3461 30.0239 22.3682 30.6013C22.3903 31.1788 22.2133 31.7076 21.5208 31.7319C20.8881 31.7518 20.6978 31.2828 20.6514 30.8735Z" fill="#070707"/>
</g>
</svg>
