<svg width="43" height="46" viewBox="0 0 43 46" fill="none" xmlns="http://www.w3.org/2000/svg">
<g id="Group 39">
<path id="Vector" d="M20.872 45.824C15.3512 45.824 9.82998 45.824 4.30822 45.824C1.35845 45.824 0.00776256 44.4655 0.00465753 41.4676C0.00155251 34.3416 0 27.2171 0 20.0942C0 17.0777 1.30411 15.7813 4.34703 15.7782C15.4433 15.772 26.5402 15.772 37.6375 15.7782C40.5873 15.7782 41.8604 17.0482 41.8976 19.9964C41.9131 21.2105 41.8976 22.4261 41.8976 23.6402C41.8976 24.6571 41.6787 25.6988 42.7018 26.4859C43.1365 26.8213 42.9673 27.5214 42.9688 28.071C42.9688 29.7276 42.9766 31.3841 42.9688 33.0391C42.9688 34.0125 43.1629 35.0278 42.1088 35.7125C41.7315 35.9578 41.9023 36.5369 41.9007 36.9716C41.893 38.6281 41.9349 40.2862 41.8899 41.9396C41.8215 44.4329 40.4243 45.8038 37.9325 45.8131C32.2441 45.8364 26.5573 45.824 20.872 45.824Z" fill="#070707"/>
<path id="Vector_2" d="M5.11084 14.204C11.4637 9.64893 17.5961 5.24601 23.741 0.852401C25.4022 -0.33527 26.0371 -0.32285 27.4266 1.14893C27.911 1.66281 28.2029 1.54327 28.5724 1.19861C30.5782 -0.683033 31.9988 -0.130339 33.5156 2.09907C35.8956 5.60619 38.4867 8.97359 40.9863 12.4046C41.2455 12.7586 41.5467 13.1126 41.6927 13.5162C41.9131 14.1279 42.1507 14.9834 41.4722 15.2706C41.0732 15.4398 40.6959 14.6496 40.3482 14.1357C38.3672 11.1549 36.2278 8.28117 34.1288 5.37952C33.5544 4.58464 33.1709 5.35624 32.7983 5.62172C29.2105 8.18802 25.618 10.745 22.086 13.3843C21.052 14.1605 20.0413 14.5782 18.5711 14.19L30.2553 5.71331C30.7009 5.38884 31.1061 4.98053 31.5967 4.75231C32.8961 4.14683 32.8387 3.5103 32.036 2.40181C31.2334 1.29331 30.617 1.41441 29.6529 2.1177C24.3884 5.94153 19.0741 9.6924 13.8173 13.5318C12.8097 14.2677 11.8332 14.5067 10.4515 14.2009L25.0342 3.7261C25.3913 3.46993 25.7577 3.22309 26.1132 2.96382C26.4237 2.73404 26.7761 2.49806 26.402 2.0556C26.0915 1.68299 25.7981 1.19395 25.1879 1.55724C24.8572 1.75441 24.5483 1.98884 24.2347 2.2124C18.9903 5.96948 13.7273 9.69706 8.52015 13.5069C7.51102 14.2382 6.53605 14.5036 5.11084 14.204Z" fill="#070707"/>
<path id="Vector_3" d="M36.8897 12.1299C36.8509 12.6236 34.3389 14.4928 33.9399 14.3158C33.3841 14.0705 33.1761 13.5597 33.6465 13.1359C34.3489 12.5199 35.109 11.973 35.9163 11.5026C36.5683 11.1099 36.7515 11.6641 36.8897 12.1299Z" fill="#070707"/>
<path id="Vector_4" d="M20.99 17.146C26.4579 17.146 31.9264 17.146 37.3953 17.146C39.8468 17.146 40.4553 17.753 40.474 20.147C40.4848 21.5831 40.4134 23.0238 40.4973 24.4552C40.5594 25.5187 40.2675 25.8975 39.1342 25.8634C36.2651 25.7811 33.3899 25.8199 30.5193 25.8432C28.0228 25.8649 26.7575 27.1256 26.697 29.5894C26.5604 35.0806 27.2404 35.773 32.7518 35.773C34.961 35.773 37.1718 35.8134 39.3795 35.7529C40.2644 35.728 40.5174 36.009 40.4864 36.8722C40.4243 38.58 40.505 40.2986 40.4553 42.0095C40.4072 43.6567 39.6449 44.4252 37.9713 44.4283C26.6483 44.45 15.3254 44.45 4.00238 44.4283C2.21544 44.4283 1.36311 43.5713 1.36311 41.7611C1.33827 34.4694 1.33827 27.1773 1.36311 19.8846C1.36311 17.9145 2.1906 17.1507 4.24923 17.1445C9.83206 17.1351 15.4118 17.146 20.99 17.146Z" fill="white"/>
<path id="Vector_5" d="M35.5523 27.2063C37.2057 27.2063 38.8607 27.2466 40.5203 27.1907C41.3773 27.1628 41.68 27.4283 41.6474 28.3101C41.5853 30.0179 41.6055 31.7256 41.6474 33.4334C41.6629 34.1382 41.4254 34.4161 40.7066 34.4115C37.2336 34.3866 33.7607 34.4379 30.2892 34.3695C28.878 34.3431 28.139 33.5203 28.08 32.0408C27.8968 27.4624 28.1188 27.2094 32.7562 27.2094L35.5523 27.2063Z" fill="white"/>
<path id="Vector_6" d="M31.7161 30.8034C31.6059 31.1838 31.3932 31.5129 30.957 31.4726C30.8631 31.4699 30.771 31.4471 30.6867 31.4058C30.6024 31.3644 30.5279 31.3055 30.4684 31.233C30.4088 31.1605 30.3654 31.076 30.3413 30.9853C30.3171 30.8946 30.3126 30.7998 30.3282 30.7072C30.3288 30.6269 30.3459 30.5476 30.3786 30.4742C30.4113 30.4009 30.4588 30.3351 30.5182 30.281C30.5775 30.2269 30.6474 30.1857 30.7235 30.1599C30.7995 30.1341 30.8801 30.1243 30.9601 30.1312C31.401 30.1188 31.6416 30.3718 31.7161 30.8034Z" fill="#070707"/>
</g>
</svg>
