<svg width="56" height="49" viewBox="0 0 56 49" fill="none" xmlns="http://www.w3.org/2000/svg">
<g id="Group 43">
<path id="Vector" d="M28.0185 17.0151C29.3699 17.0151 30.7214 17.0151 32.0728 17.0151C32.5682 17.0151 33.0521 17.1268 33.2181 17.6651C33.3527 18.1404 33.012 18.4582 32.6254 18.6014C31.7207 18.9392 32.1129 19.5605 32.279 20.096C32.8311 21.8343 33.7488 23.4344 34.9704 24.7888C38.6124 28.9233 38.4693 34.624 34.6841 38.2631C31.0163 41.7763 24.9491 41.762 21.3014 38.2288C17.5248 34.561 17.4045 28.8403 21.0752 24.7716C22.2125 23.5256 23.0792 22.0574 23.6206 20.4596C23.8697 19.7152 24.2505 19.1167 23.2226 18.4553C22.1947 17.7939 22.8647 17.1468 23.7781 17.0838C25.1896 16.9865 26.6127 17.0581 28.03 17.0581L28.0185 17.0151Z" fill="#070707"/>
<path id="Vector_2" d="M47.3452 7.81264C48.5592 7.81264 49.7761 7.77256 50.9872 7.82696C52.038 7.87563 52.4418 8.63725 51.6429 9.24139C50.7439 9.92284 51.1562 10.484 51.3566 11.1197C51.8823 12.5786 52.6865 13.9216 53.7245 15.0738C56.9513 18.8704 56.7137 24.1588 53.2206 27.483C51.5912 29.023 49.4289 29.8724 47.187 29.8532C44.9451 29.834 42.7977 28.9476 41.195 27.3799C37.7591 24.0099 37.6016 18.7187 40.9087 14.9678C41.929 13.8022 42.7172 12.4523 43.2308 10.9908C43.4255 10.4525 43.7261 9.92284 42.9444 9.27288C42.0282 8.51699 42.5665 7.84127 43.6975 7.81837C44.9057 7.7926 46.1198 7.81264 47.3452 7.81264Z" fill="#070707"/>
<path id="Vector_3" d="M8.80577 7.81268C10.0198 7.81268 11.2367 7.76974 12.4507 7.827C13.4871 7.87568 13.9166 8.62584 13.1092 9.2357C12.2073 9.91715 12.6053 10.4927 12.8229 11.1197C13.3591 12.5747 14.1654 13.9153 15.1994 15.071C18.4262 18.859 18.1857 24.1846 14.7012 27.4859C13.0711 29.0249 10.9087 29.8733 8.66705 29.8536C6.42538 29.8338 4.2783 28.9474 2.67559 27.38C-0.760278 23.9956 -0.920619 18.6758 2.38927 14.9736C3.40934 13.8127 4.18889 12.4609 4.68272 10.9966C4.87742 10.444 5.16947 9.9286 4.3964 9.27865C3.48875 8.51703 4.01273 7.84704 5.14943 7.82127C6.37775 7.79264 7.59176 7.81268 8.80577 7.81268Z" fill="#070707"/>
<path id="Vector_4" d="M28.8265 6.80476C28.8265 8.62578 28.8494 10.4468 28.8265 12.2678C28.8265 13.0351 28.8838 13.6049 29.8859 13.4818C30.4987 13.4045 30.9453 13.6679 30.951 14.3665C30.951 15.1482 30.3927 15.1597 29.8287 15.1568H26.1809C25.6083 15.1568 25.0585 15.1568 25.0557 14.3694C25.0557 13.7968 25.3735 13.4188 25.9146 13.4933C27.3462 13.6822 27.1773 12.7517 27.1745 11.8641C27.163 8.42821 27.163 4.99233 27.1745 1.55646C27.1745 0.923688 26.9626 0.0446777 27.9933 0.0446777C29.0241 0.0446777 28.8065 0.920825 28.8151 1.55646C28.8409 3.31448 28.8265 5.05247 28.8265 6.80476Z" fill="#070707"/>
<path id="Vector_5" d="M8.58907 6.08029C8.1195 6.08029 7.64993 6.08029 7.18036 6.08029C6.56476 6.08029 5.85755 6.06597 5.73156 5.31581C5.59986 4.50838 6.24695 4.28505 6.89403 4.30796C7.753 4.33659 7.91048 3.89852 7.8704 3.18271C7.8389 2.58143 7.85322 1.97442 7.8704 1.37315C7.88758 0.771868 7.85608 0.0302897 8.68069 0.00165738C9.67136 -0.0298381 9.56257 0.806226 9.5912 1.46191C9.6141 1.92861 9.6141 2.40105 9.5912 2.87062C9.55684 3.64942 9.51962 4.37668 10.6649 4.30223C11.2376 4.26787 11.8102 4.5456 11.7587 5.20128C11.7043 5.96004 11.04 6.06025 10.4015 6.06025L8.58907 6.08029Z" fill="#070707"/>
<path id="Vector_6" d="M47.2214 6.08039H45.8127C45.1312 6.08039 44.3238 6.10329 44.2465 5.22142C44.1806 4.44549 44.8821 4.27942 45.5206 4.29374C46.434 4.31378 46.4225 3.72109 46.4054 3.08259C46.4054 2.54716 46.3853 2.00888 46.4054 1.47346C46.434 0.817777 46.3223 -0.0440591 47.3044 0.00175252C48.2865 0.0475642 48.0975 0.90653 48.129 1.55648C48.1892 2.83635 47.5793 4.48557 49.847 4.50275C50.1476 4.50275 50.3423 4.92364 50.2822 5.30159C50.2593 5.47047 50.1816 5.62717 50.0611 5.74768C49.9406 5.86818 49.7839 5.94583 49.615 5.96872C48.8191 6.06321 48.0145 6.07466 47.2128 6.11761L47.2214 6.08039Z" fill="#070707"/>
<path id="Vector_7" d="M16.6448 37.3869C16.6018 38.18 15.9118 38.3346 15.385 38.4978C14.609 38.7355 13.8904 39.5801 12.9655 38.8786C12.8531 38.8015 12.7719 38.6868 12.7365 38.5551C12.6305 37.5157 13.5439 37.3926 14.1681 37.175C14.8982 36.9145 15.6799 36.0297 16.5131 37.0204C16.5761 37.1348 16.6206 37.2585 16.6448 37.3869Z" fill="#070707"/>
<path id="Vector_8" d="M43.3145 38.1829C43.2686 38.8157 42.9021 39.2308 42.4183 39.0991C41.2959 38.7928 39.9645 38.6926 39.3975 37.4614C39.1914 37.0118 39.724 36.485 40.2279 36.6196C41.3589 36.9202 42.5786 37.135 43.3145 38.1829Z" fill="#070707"/>
<path id="Vector_9" d="M19.469 41.9281C18.8305 42.8185 18.1462 43.835 16.9751 44.2416C16.4425 44.4248 16.0417 43.8264 16.1992 43.3654C16.3754 42.797 16.6893 42.2809 17.1128 41.8628C17.5364 41.4448 18.0565 41.1377 18.6272 40.9689C19.1053 40.8229 19.4947 41.2094 19.469 41.9281Z" fill="#070707"/>
<path id="Vector_10" d="M37.4594 40.9086C38.4615 41.4297 39.3921 42.1541 39.8015 43.328C39.9647 43.789 39.5839 44.4103 39.0657 44.2414C37.8889 43.8549 37.0843 42.9129 36.5661 41.8277C36.3198 41.3123 36.818 41.0088 37.4594 40.9086Z" fill="#070707"/>
<path id="Vector_11" d="M22.2595 47.6029C21.5552 47.6315 21.0455 47.2908 21.1973 46.827C21.5495 45.7361 21.5752 44.3732 22.8322 43.8206C22.9446 43.7792 23.066 43.7688 23.1838 43.7906C23.3016 43.8123 23.4113 43.8654 23.5015 43.9442C23.5917 44.0229 23.6591 44.1245 23.6965 44.2383C23.7339 44.3521 23.7399 44.4738 23.7141 44.5908C23.4363 45.7074 23.2674 46.9358 22.2595 47.6029Z" fill="#070707"/>
<path id="Vector_12" d="M33.1033 43.7347C34.1455 44.1356 34.1455 45.1291 34.512 45.8678C34.7324 46.3145 35.1304 46.8356 34.5979 47.3252C34.4073 47.5015 34.1559 47.5969 33.8964 47.5915C33.0574 47.4827 33.0088 46.7067 32.7797 46.1112C32.5277 45.4584 31.9494 44.8256 32.4733 44.0726C32.6022 43.8922 32.9086 43.8349 33.1033 43.7347Z" fill="#070707"/>
<path id="Vector_13" d="M27.1506 46.6323C27.2708 45.8707 26.8643 44.6595 28.0754 44.7941C29.2866 44.9287 28.7769 46.1799 28.7998 46.9587C28.8227 47.6631 29.1892 48.8742 27.9208 48.7368C26.6524 48.5993 27.3854 47.3366 27.1506 46.6323Z" fill="#070707"/>
<path id="Vector_14" d="M27.1708 24.0215C27.1708 25.0351 27.0677 26.063 27.1965 27.0594C27.3798 28.5168 26.9303 29.5018 25.5674 30.1116C24.9632 30.3836 24.2474 30.8074 24.7284 31.6406C25.261 32.5625 25.9654 31.9498 26.4177 31.5547C27.5201 30.5869 28.4821 30.6585 29.5673 31.5547C30.0226 31.9326 30.7355 32.5539 31.2623 31.6234C31.7405 30.7816 31.0218 30.3607 30.4034 30.103C29.0061 29.5132 28.6997 28.5025 28.777 27.0623C28.9002 24.7058 28.7971 22.3351 28.8229 19.9701C28.8229 19.5062 28.5566 18.8248 29.4671 18.8047C30.2029 18.7876 30.2745 19.2399 30.4148 19.824C31.0129 22.179 32.1945 24.3453 33.8507 26.1231C36.7884 29.413 36.5478 34.0027 33.3868 37.0206C31.9102 38.4391 29.9351 39.2201 27.8877 39.1949C25.8402 39.1697 23.8849 38.3404 22.4436 36.886C19.3484 33.8252 19.2282 29.2498 22.2489 25.9886C23.849 24.2503 24.9837 22.1356 25.5473 19.8412C25.6933 19.2686 25.7363 18.799 26.4779 18.8047C27.3912 18.8047 27.1336 19.489 27.1421 19.95C27.1908 21.3186 27.1708 22.6701 27.1708 24.0215Z" fill="white"/>
<path id="Vector_15" d="M47.457 28.1358C44.4019 28.1358 42.3031 26.7443 41.0004 24.1989C39.6518 21.5447 39.9209 18.9048 41.7878 16.6142C43.3024 14.756 44.631 12.8576 45.1177 10.4754C45.404 9.00373 46.5665 9.60214 47.4083 9.55347C48.2501 9.50479 49.1892 9.18697 49.444 10.5327C49.8821 12.8519 51.2106 14.6987 52.6738 16.5025C54.5864 18.8647 54.9042 21.5332 53.507 24.2561C52.23 26.7214 50.1684 28.0814 47.457 28.1358Z" fill="white"/>
<path id="Vector_16" d="M8.93434 28.1444C5.8306 28.0843 3.78052 26.7128 2.50066 24.2619C1.16926 21.685 1.35537 19.0937 3.09908 16.8375C4.64522 14.8333 6.06824 12.8719 6.64661 10.3552C6.99592 8.83766 8.32447 9.71953 9.20348 9.5506C9.9336 9.4103 10.6838 9.4103 10.8842 10.464C11.3366 12.8605 12.7252 14.7388 14.2113 16.6056C16.0495 18.9162 16.3444 21.5389 14.9986 24.196C13.7073 26.75 11.5885 28.1158 8.93434 28.1444Z" fill="white"/>
</g>
</svg>
