<svg width="43" height="49" viewBox="0 0 43 49" fill="none" xmlns="http://www.w3.org/2000/svg">
<g id="Group 42">
<path id="Vector" d="M29.2476 24.6495C29.2492 22.7881 28.5784 20.9888 27.3587 19.5828C26.1391 18.1767 24.4526 17.2584 22.6097 16.9971C21.7351 16.8702 21.0048 16.6188 20.6856 15.7093C20.2811 14.557 21.007 13.3042 22.2161 13.2102C23.3399 13.1206 24.0374 12.5543 24.5315 11.5923C25.2115 10.2586 25.5504 10.1602 26.9562 10.7177L27.2601 10.838C28.7381 11.4261 28.9087 11.7125 28.4408 13.243C28.08 14.4062 28.2856 15.3726 29.2104 16.175C29.36 16.3012 29.4982 16.4402 29.6236 16.5904C30.5813 17.7667 31.7401 18.0334 33.1656 17.5043C34.1998 17.1217 34.6764 17.395 35.1028 18.4073C35.2689 18.8052 35.4417 19.2053 35.5903 19.612C35.8352 20.2832 35.6997 20.9085 35.0634 21.1643C33.205 21.9077 32.7896 23.3092 32.9251 25.1414C33.0104 26.3046 33.4039 27.1354 34.4556 27.6361C34.6513 27.7292 34.8418 27.8328 35.0263 27.9466C35.704 28.3554 35.9008 28.8671 35.6275 29.5973C35.4482 30.0849 35.2536 30.5681 35.0416 31.0425C34.7355 31.7291 34.202 32.0679 33.5264 31.7793C31.7073 31.0054 30.4523 31.7006 29.2585 33.0606C28.4539 33.9789 28.1653 34.8819 28.5654 36.0253C28.725 36.4626 28.9174 36.9218 28.7469 37.4115C28.4845 38.1527 26.2544 39.0798 25.5394 38.7649C25.2203 38.6174 24.971 38.3516 24.8442 38.0237C24.2298 36.5872 23.189 35.9751 21.6039 36.0975C20.4692 36.1871 19.6536 35.2951 19.6602 34.2041C19.6668 33.1131 20.4998 32.2363 21.628 32.3259C24.9885 32.5971 29.2607 29.4596 29.2476 24.6495Z" fill="#070707"/>
<path id="Vector_2" d="M19.1116 40.8639C18.4164 40.8639 17.7211 40.8902 17.028 40.8639C16.4014 40.8509 15.7997 40.6162 15.3297 40.2015C14.8598 39.7868 14.552 39.219 14.4612 38.5988C13.967 34.8819 12.4934 31.4974 10.8055 28.2287C9.36027 25.4432 8.71528 22.6096 9.25532 19.5115C10.2414 13.8684 15.4713 9.36002 21.0619 9.34035C21.8162 9.34035 22.271 9.6377 22.3934 10.2149C22.5509 10.9561 22.0152 11.5595 21.1515 11.5792C18.5541 11.6404 16.3415 12.6309 14.4786 14.3953C10.8164 17.8476 10.6021 23.0841 12.4037 26.3987C14.0359 29.3893 15.3183 32.5578 16.2256 35.8418C16.4217 36.5083 16.5477 37.1934 16.6016 37.8861C16.6366 38.4195 16.8946 38.6447 17.439 38.636C18.6547 38.6163 19.8681 38.636 21.0838 38.636C21.9037 38.636 22.3956 39.0733 22.4109 39.7423C22.424 40.4573 21.9365 40.8639 21.0597 40.8705H19.1116V40.8639Z" fill="#070707"/>
<path id="Vector_3" d="M18.8935 20.3904C18.8754 20.3002 18.852 20.2111 18.8235 20.1237C18.6442 19.6448 18.7142 19.3125 19.2455 19.0895C19.7768 18.8665 20.1463 18.8709 20.4699 19.459C20.9225 20.2767 22.3152 20.2614 22.8334 19.4787C23.2707 18.8227 23.6686 18.7572 24.3136 19.2054C24.576 19.3868 24.5738 19.6164 24.5322 19.8897C24.2895 21.1775 25.1094 22.0127 26.3622 21.7241C26.9198 21.5929 27.0838 21.9078 27.2565 22.3188C27.4292 22.7299 27.4751 23.0294 27.0378 23.3136C25.9709 23.9849 25.9862 25.2267 27.0663 25.9067C27.4839 26.1691 27.462 26.4642 27.298 26.8447C27.134 27.2251 27.0094 27.6034 26.4235 27.4853C25.1116 27.2229 24.3223 28.0363 24.5934 29.3678C24.705 29.91 24.3639 30.0434 23.9922 30.1986C23.6205 30.3539 23.3231 30.4566 23.0367 30.0303C22.2802 28.9043 21.1236 28.8933 20.413 30.0084C20.1004 30.496 19.7571 30.3539 19.3526 30.1964C18.9481 30.039 18.712 29.8226 18.8257 29.3219C19.099 28.1084 18.2179 27.2207 17.0219 27.5181C16.4731 27.6558 16.2851 27.3847 16.108 26.9606C15.9309 26.5364 15.909 26.2084 16.3791 25.922C17.398 25.2989 17.4002 24.0024 16.3791 23.4098C15.8653 23.1147 15.9222 22.7758 16.0971 22.3166C16.2851 21.8291 16.5344 21.641 17.081 21.7985C17.8724 22.0258 18.911 21.2191 18.8935 20.3904Z" fill="#070707"/>
<path id="Vector_4" d="M21.5013 42.7683C23.2811 42.7683 25.0601 42.7683 26.8383 42.7683C27.6845 42.7683 28.1633 43.1618 28.1742 43.8484C28.1852 44.5349 27.6954 44.9984 26.8362 44.9984C23.2796 44.9984 19.7223 44.9984 16.1643 44.9984C15.2897 44.9984 14.8197 44.5765 14.8328 43.8506C14.8459 43.1619 15.3138 42.7749 16.1665 42.7727C17.944 42.7661 19.7238 42.7705 21.5013 42.7683Z" fill="#070707"/>
<path id="Vector_5" d="M21.4856 46.6032C22.3098 46.6032 23.1341 46.6032 23.9562 46.6032C24.7783 46.6032 25.2681 47.023 25.2681 47.7095C25.2681 48.396 24.7783 48.8486 23.9125 48.8508C22.2858 48.8508 20.6591 48.8508 19.0324 48.8508C18.2125 48.8508 17.7206 48.4135 17.7096 47.7401C17.6987 47.0667 18.1972 46.6119 19.0018 46.601C19.8064 46.5901 20.6613 46.6032 21.4856 46.6032Z" fill="#070707"/>
<path id="Vector_6" d="M6.94418 5.19052C7.25222 5.23127 7.5358 5.38002 7.7444 5.61031C8.78076 6.65104 9.82805 7.68302 10.8644 8.72593C11.3563 9.22006 11.3891 9.81914 10.9715 10.2061C10.5539 10.5931 10.0379 10.545 9.54381 10.0531C8.46956 8.98758 7.40041 7.9177 6.33636 6.84344C6.18727 6.71527 6.08384 6.54213 6.04165 6.3501C5.99945 6.15807 6.02078 5.95753 6.10241 5.77866C6.17082 5.60973 6.28674 5.46426 6.43614 5.35987C6.58555 5.25548 6.76202 5.19665 6.94418 5.19052Z" fill="#070707"/>
<path id="Vector_7" d="M36.9698 5.93829C36.9933 6.11574 36.973 6.29628 36.9104 6.46402C36.8479 6.63176 36.7452 6.78157 36.6112 6.90031C35.5573 7.95635 34.5079 9.01675 33.4475 10.064C32.949 10.5538 32.4242 10.5844 32.0176 10.1887C31.6109 9.79292 31.6481 9.23102 32.1159 8.75657C33.1785 7.68086 34.2521 6.61608 35.3256 5.54912C35.6186 5.25614 35.9487 5.08996 36.3751 5.26706C36.5255 5.31484 36.6603 5.40247 36.765 5.52065C36.8697 5.63883 36.9405 5.78314 36.9698 5.93829Z" fill="#070707"/>
<path id="Vector_8" d="M22.4258 3.36488C22.4258 4.12575 22.4258 4.89536 22.4258 5.64311C22.4126 6.26842 22.0235 6.6751 21.49 6.65761C21.3647 6.65525 21.2413 6.62743 21.1272 6.57583C21.0131 6.52423 20.9106 6.44993 20.8262 6.35747C20.7417 6.26501 20.6769 6.15631 20.6358 6.03801C20.5947 5.9197 20.5781 5.79427 20.587 5.66935C20.5739 4.10825 20.5739 2.54716 20.587 0.986071C20.5793 0.861167 20.5969 0.735989 20.6388 0.618062C20.6807 0.500136 20.7459 0.39189 20.8307 0.299803C20.9154 0.207717 21.0179 0.133694 21.1319 0.082177C21.246 0.0306596 21.3692 0.00270828 21.4943 0C22.0256 0 22.417 0.402299 22.4279 1.02542C22.4367 1.80597 22.4258 2.58652 22.4258 3.36488Z" fill="#070707"/>
<path id="Vector_9" d="M3.28839 21.6082C2.52971 21.6082 1.77103 21.6082 1.01453 21.6082C0.378288 21.5951 -0.00433573 21.2278 3.70815e-05 20.6768C0.00440989 20.1259 0.393588 19.7651 1.03639 19.7607C2.5523 19.752 4.06821 19.752 5.58412 19.7607C6.22911 19.7607 6.62047 20.1237 6.63359 20.6681C6.64671 21.2125 6.24004 21.5995 5.56225 21.6082C4.80357 21.617 4.04489 21.6082 3.28839 21.6082Z" fill="#070707"/>
<path id="Vector_10" d="M39.663 21.6082C38.9043 21.6082 38.1478 21.6213 37.3892 21.6082C36.7573 21.5973 36.3659 21.219 36.3747 20.6746C36.3834 20.1302 36.7923 19.7651 37.4176 19.7607C38.9328 19.7607 40.4479 19.7607 41.9631 19.7607C42.63 19.7607 42.9907 20.104 42.9995 20.6681C43.0082 21.2322 42.6387 21.5973 41.9347 21.606C41.1738 21.617 40.4151 21.6082 39.663 21.6082Z" fill="#070707"/>
</g>
</svg>
