<?xml version="1.0" encoding="utf-8"?>
<!-- Generator: Adobe Illustrator 27.5.0, SVG Export Plug-In . SVG Version: 6.00 Build 0)  -->
<svg version="1.1" id="Layer_1" xmlns="http://www.w3.org/2000/svg" xmlns:xlink="http://www.w3.org/1999/xlink" x="0px" y="0px"
     viewBox="0 0 2000 2000" style="enable-background:new 0 0 2000 2000;" xml:space="preserve">
<style type="text/css">
	.st0{fill-rule:evenodd;clip-rule:evenodd;}
	.st1{fill:#FFFFFF;}
	.st2{fill-rule:evenodd;clip-rule:evenodd;fill:#FFFFFF;fill-opacity:0.5044;}
	.st3{fill-rule:evenodd;clip-rule:evenodd;fill:#FFFFFF;fill-opacity:0.2464;}
</style>
    <path id="Rectangle" class="st0" d="M0,2000h2000V0H0V2000z"/>
    <polygon class="st1" points="1075.3,1218.5 921.5,1130 916.6,1126.2 912.2,1122 908.3,1117.4 905,1112.3 902.4,1106.8 900.5,1100.9
	899.3,1094.6 899,1088.6 899,911.5 899.3,906.4 900.5,900.1 901.8,895.6 904.3,890 907.4,884.8 912.2,879 916.6,874.8 922.2,870.6
	1075.3,782.4 1083.2,778.7 1167.5,730.2 1129.3,708.1 1124.1,705.4 1118.2,703.2 1112.3,701.6 1106.1,700.8 1099.6,700.5
	1091.5,701.2 1082.9,703.1 1074.4,706.1 1067.1,709.7 863.1,827.2 857.2,831.5 851.1,836.9 845.8,842.8 842.2,847.8 838.2,854.7
	835.2,862.4 833.1,870.4 832.1,879.6 832,1117.8 832.4,1125.8 833.9,1134.1 836.4,1142.1 839.9,1149.4 844.3,1156.2 849.4,1162.3
	855.4,1168 862,1173.1 1068,1291.8 1076.1,1295.6 1084.6,1298.4 1093,1300 1100.7,1300.5 1105.8,1300.3 1111.9,1299.4
	1117.8,1297.9 1123.7,1295.7 1129.2,1293 1167.5,1270.8 1083.4,1222.4 "/>
    <path id="Path-copy-2" class="st2" d="M1100.5,1225.5c-8.4,0-17.1-2.3-25.2-7l-153.1-88.1c-13.9-9.3-23.2-23.2-23.2-41.8V912.4
	c0-18.6,9.3-32.5,23.2-41.8l153.1-88.1c16.2-9.3,34.8-9.3,48.7,0l42.7,24.6l-95.3,54.8c-0.5,0.3-1,0.7-1.5,1l-88.5,51
	c-9.3,6.2-15.5,15.5-15.5,27.8v117.5c0,12.4,6.2,21.6,15.5,27.8l88.5,51c0.5,0.4,1,0.7,1.5,1l95.3,54.8l-42.7,24.6
	C1117,1223.2,1108.9,1225.5,1100.5,1225.5z"/>
    <path id="Path-copy-4" class="st3" d="M1100.3,1150.5c-5.6,0-11.4-1.5-16.8-4.6l-102.1-58.8c-9.3-6.2-15.5-15.5-15.5-27.8V941.7
	c0-12.4,6.2-21.6,15.5-27.8l102.1-58.8c10.8-6.2,23.2-6.2,32.5,0l51,29.4c-1,0.4-1.9,0.9-2.8,1.4l-74.8,43.1
	c-0.5,0.4-1.1,0.7-1.6,1.1l-47,27.1c-4.6,3.1-7.7,7.7-7.7,13.9v58.8c0,6.2,3.1,10.8,7.7,13.9l47,27.1c0.5,0.4,1,0.8,1.6,1.1
	l74.8,43.1c0.9,0.5,1.9,1,2.8,1.4l-51,29.4C1111.4,1149,1105.9,1150.5,1100.3,1150.5z"/>
</svg>
